<svg xmlns="http://www.w3.org/2000/svg" xmlns:xlink="http://www.w3.org/1999/xlink" width="113.5" height="38.5" viewBox="0 0 113.5 38.5"><defs><style>.a{fill:none;}.b{stroke:#fff;stroke-width:0.5px;}.c{fill:#f9f9f9;}.d{clip-path:url(#a);}.e{fill:url(#b);}.f{fill:url(#c);}.g{fill:url(#d);}.h{fill:url(#e);}.i,.j{fill:#fff;}.j{font-size:15px;font-family:SegoeUI-Semilight, Segoe UI;font-weight:300;}</style><clipPath id="a"><path class="a" d="M146.269,336.213l-3.584-2.069-6.913-3.992c-.384-.222-.766-.087-.766.376V346.79c0,.347.273.5.607.3l7.072-4.084,3.584-2.069,3.445-1.989c.4-.234.365-.554.024-.738S146.269,336.213,146.269,336.213Z" transform="translate(-135.006 -330.047)"/></clipPath><linearGradient id="b" x1="0.5" x2="0.5" y2="1" gradientUnits="objectBoundingBox"><stop offset="0" stop-color="#2281b1"/><stop offset="0.321" stop-color="#37abbc"/><stop offset="0.778" stop-color="#53e2cb"/><stop offset="1" stop-color="#5ff8d1"/></linearGradient><linearGradient id="c" y1="0.5" x2="1" y2="0.5" gradientUnits="objectBoundingBox"><stop offset="0" stop-color="#5acaac"/><stop offset="1" stop-color="#bbf4a3"/></linearGradient><linearGradient id="d" x1="0.5" x2="0.5" y2="1" gradientUnits="objectBoundingBox"><stop offset="0" stop-color="#da3f5b"/><stop offset="0.076" stop-color="#d43e62"/><stop offset="0.699" stop-color="#ae3899"/><stop offset="1" stop-color="#9f36af"/></linearGradient><linearGradient id="e" x1="0.5" x2="0.5" y2="1" gradientUnits="objectBoundingBox"><stop offset="0" stop-color="#ffa176"/><stop offset="0.41" stop-color="#ffb275"/><stop offset="1" stop-color="#ffc874"/></linearGradient></defs><g transform="translate(-183.75 -588.75)"><path class="b" d="M209.641,968.689a5.067,5.067,0,0,1-4.994,5.136H101.636a5.067,5.067,0,0,1-5-5.136V940.96a5.067,5.067,0,0,1,5-5.135H204.647a5.066,5.066,0,0,1,4.994,5.135Z" transform="translate(87.359 -346.825)"/><g transform="translate(211 605.727)"><path class="c" d="M382.616,374.7a2.652,2.652,0,0,1-.212,4.51,1.145,1.145,0,0,0-.456.8.893.893,0,0,0,.424.7l.586.455a2.835,2.835,0,0,1,1.367,2.28c0,1.53-1.482,3.077-4.281,3.077-2.361,0-3.5-1.123-3.5-2.329A2.343,2.343,0,0,1,377.8,382.2a7.018,7.018,0,0,1,3.109-.749,1.7,1.7,0,0,1-.489-1.106,1.47,1.47,0,0,1,.163-.636c-.18.017-.359.033-.522.033a2.574,2.574,0,0,1-2.7-2.556,2.929,2.929,0,0,1,1.042-2.182,4.44,4.44,0,0,1,2.915-.9h3.353l-1.042.586Zm-1.156,7.229a2.522,2.522,0,0,0-.374-.017,6.516,6.516,0,0,0-1.71.262,1.829,1.829,0,0,0-1.4,1.677c0,1.155,1.124,1.987,2.866,1.987,1.562,0,2.393-.75,2.393-1.759C383.235,383.246,382.7,382.808,381.459,381.928Zm.472-3.094a1.647,1.647,0,0,0,.406-1.189c0-1.172-.7-3-2.05-3a1.521,1.521,0,0,0-1.14.537,1.881,1.881,0,0,0-.358,1.2c0,1.091.635,2.9,2.036,2.9A1.667,1.667,0,0,0,381.932,378.835Z" transform="translate(-347.088 -369.839)"/><path class="c" d="M346.039,380.921a3.836,3.836,0,0,1-3.966-3.837,4.028,4.028,0,0,1,4.211-3.949,3.8,3.8,0,0,1,3.884,3.836A3.972,3.972,0,0,1,346.039,380.921Zm2.032-1.316a2.941,2.941,0,0,0,.488-1.8c0-1.431-.682-4.161-2.7-4.161a2.264,2.264,0,0,0-1.463.553,2.459,2.459,0,0,0-.748,1.984c0,1.608.8,4.257,2.764,4.257A2.076,2.076,0,0,0,348.07,379.6Z" transform="translate(-320.761 -369.092)"/><path class="c" d="M308.742,380.921a3.836,3.836,0,0,1-3.966-3.837,4.028,4.028,0,0,1,4.211-3.949,3.8,3.8,0,0,1,3.884,3.836A3.972,3.972,0,0,1,308.742,380.921Zm2.032-1.316a2.945,2.945,0,0,0,.488-1.8c0-1.431-.683-4.161-2.7-4.161a2.265,2.265,0,0,0-1.463.553,2.459,2.459,0,0,0-.748,1.984c0,1.608.8,4.257,2.764,4.257A2.078,2.078,0,0,0,310.774,379.6Z" transform="translate(-292.275 -369.092)"/><path class="c" d="M263.115,368.77l-2.337.539a17.318,17.318,0,0,1-2.7.277,5.807,5.807,0,0,1-6.226-5.916c0-3.17,2.435-6.111,6.6-6.111a9.407,9.407,0,0,1,2.5.343,6.371,6.371,0,0,1,2.157,1.013l-1.357,1.291-.572.13.408-.654a4.671,4.671,0,0,0-3.5-1.535,4.514,4.514,0,0,0-4.527,4.821,5.779,5.779,0,0,0,5.785,5.964,4.866,4.866,0,0,0,2.076-.409v-2.631l-2.467.131,1.307-.7h3.465l-.424.408a.382.382,0,0,0-.164.261c-.017.147-.032.622-.032.785Z" transform="translate(-251.856 -357.196)"/><path class="c" d="M412.892,367.123c-.54-.049-.652-.147-.652-.785v-9.249c0-.035.006-.071.009-.105.066-.572.229-.67.736-.964h-2.338l-1.226.588h1.249V366.7c0,.326-.065.376-.441.866h2.893l.6-.359C413.449,367.171,413.17,367.155,412.892,367.123Z" transform="translate(-372.2 -356.019)"/><path class="c" d="M433.113,380.362c-.178.1-.356.212-.534.292a3.78,3.78,0,0,1-1.576.309,3.468,3.468,0,0,1-2.159-.633,4.2,4.2,0,0,1-1.655-3.425,3.678,3.678,0,0,1,3.717-3.748,3.154,3.154,0,0,1,1.672.455,2.687,2.687,0,0,1,1.135,1.606l-3.813,1.542-1.25.1c.405,2.061,1.8,3.261,3.343,3.261a4.194,4.194,0,0,0,1.98-.567Zm-1.525-4.837c.308-.113.47-.211.47-.438a1.61,1.61,0,0,0-1.607-1.4,2,2,0,0,0-1.866,2.256c0,.276.032.568.049.861Z" transform="translate(-385.771 -369.108)"/></g><g transform="translate(57.994 274.257)"><g class="d" transform="translate(135.006 330.047)"><path class="e" d="M135.006,328.285v17.607l8.879-8.8Z" transform="translate(-135.006 -328.559)"/><path class="f" d="M146.269,334.376l-3.584-2.069-7.679-4.434v.064l8.879,8.8Z" transform="translate(-135.006 -328.211)"/><path class="g" d="M135.006,393.741v.064l7.679-4.434,3.584-2.069-2.385-2.364Z" transform="translate(-135.006 -376.408)"/><path class="h" d="M194.524,369.721l-2.385,2.365,2.385,2.364,4.1-2.365Z" transform="translate(-183.261 -363.555)"/></g></g><path class="i" d="M4.844-.387A3.68,3.68,0,0,1,3.016.1,2.735,2.735,0,0,1,1.922-.111,2.369,2.369,0,0,1,1.1-.693a2.567,2.567,0,0,1-.521-.891A3.418,3.418,0,0,1,.395-2.723a3.481,3.481,0,0,1,.088-.789A3.083,3.083,0,0,1,.74-4.223a2.736,2.736,0,0,1,.416-.6,2.6,2.6,0,0,1,.564-.465,2.708,2.708,0,0,1,.7-.3A3.093,3.093,0,0,1,3.246-5.7a3.546,3.546,0,0,1,1.484.3v.574a3.14,3.14,0,0,0-1.547-.4,2.219,2.219,0,0,0-.926.188,2.073,2.073,0,0,0-.705.516,2.346,2.346,0,0,0-.451.775,2.925,2.925,0,0,0-.164.971,3.094,3.094,0,0,0,.135.959,2.152,2.152,0,0,0,.412.76,1.886,1.886,0,0,0,.676.5,2.26,2.26,0,0,0,.93.18,2.461,2.461,0,0,0,1.234-.3V-2.379H3.051v-.473H4.844ZM6.141,0V-5.6h2.73v.477H6.66V-3.07H8.707V-2.6H6.66V-.473H9V0Zm5.641-5.125V0h-.52V-5.125H9.648V-5.6H13.4v.477ZM17.031,0h-.52V-5.6h.52ZM20.09-5.125V0h-.52V-5.125H17.957V-5.6h3.75v.477ZM27.1.1a2.6,2.6,0,0,1-1.09-.221,2.42,2.42,0,0,1-.822-.6,2.69,2.69,0,0,1-.52-.9,3.333,3.333,0,0,1-.182-1.111,3.78,3.78,0,0,1,.182-1.2,2.626,2.626,0,0,1,.529-.934,2.4,2.4,0,0,1,.852-.605A2.881,2.881,0,0,1,27.2-5.7a2.569,2.569,0,0,1,1.066.213,2.337,2.337,0,0,1,.8.59A2.63,2.63,0,0,1,29.58-4a3.419,3.419,0,0,1,.178,1.121A3.869,3.869,0,0,1,29.584-1.7a2.716,2.716,0,0,1-.512.943,2.37,2.37,0,0,1-.832.625A2.705,2.705,0,0,1,27.1.1Zm.043-5.32a2.012,2.012,0,0,0-.9.193,1.963,1.963,0,0,0-.662.523,2.288,2.288,0,0,0-.408.773,3.228,3.228,0,0,0-.143.943,3.15,3.15,0,0,0,.123.912,2.318,2.318,0,0,0,.383.77,1.874,1.874,0,0,0,.646.533,1.987,1.987,0,0,0,.914.2,2.188,2.188,0,0,0,.92-.182,1.835,1.835,0,0,0,.662-.5,2.187,2.187,0,0,0,.4-.768,3.345,3.345,0,0,0,.135-.973,3.569,3.569,0,0,0-.119-.934,2.2,2.2,0,0,0-.371-.771,1.8,1.8,0,0,0-.643-.523A2.094,2.094,0,0,0,27.145-5.223ZM34.715,0,31.605-4.5q-.059-.086-.115-.176a1.142,1.142,0,0,1-.092-.176h-.02q.008.07.014.2t.006.313V0h-.52V-5.6h.574L34.512-1.16q.07.105.127.2l.1.17h.02q-.016-.129-.023-.289t-.008-.355V-5.6h.523V0Z" transform="translate(210.605 600)"/><text class="j" transform="translate(261 617)"><tspan x="0" y="0">play</tspan></text></g></svg>