<svg xmlns="http://www.w3.org/2000/svg" width="113.5" height="38.5" viewBox="0 0 113.5 38.5"><defs><style>.a{stroke:#fff;stroke-width:0.5px;}.b{fill:#fff;}</style></defs><g transform="translate(-63.25 -589.25)"><path class="a" d="M209.641,968.689a5.067,5.067,0,0,1-4.994,5.136H101.636a5.067,5.067,0,0,1-5-5.136V940.96a5.067,5.067,0,0,1,5-5.135H204.647a5.066,5.066,0,0,1,4.994,5.135Z" transform="translate(-33.141 -346.325)"/><g transform="translate(1.334 0.541)"><g transform="translate(71.666 595.459)"><path class="b" d="M152.443,1001.98a17.4,17.4,0,0,1-1.573,2.937c-1.022,1.555-2.461,3.492-4.245,3.509-1.586.015-1.993-1.032-4.144-1.02s-2.6,1.039-4.186,1.024c-1.784-.016-3.148-1.766-4.17-3.321-2.857-4.349-3.155-9.452-1.394-12.166a6.322,6.322,0,0,1,5.084-3.057c1.891,0,3.08,1.037,4.643,1.037,1.516,0,2.441-1.039,4.627-1.039a6.17,6.17,0,0,1,4.651,2.456A5.322,5.322,0,0,0,152.443,1001.98Z" transform="translate(-131.637 -984.217)"/><g transform="translate(10 0)"><path class="b" d="M184,966.286a5.308,5.308,0,0,0,1.179-3.931,5.734,5.734,0,0,0-3.7,1.991,4.927,4.927,0,0,0-1.21,3.834A4.84,4.84,0,0,0,184,966.286Z" transform="translate(-180.207 -962.355)"/></g></g><g transform="translate(97.083 595.511)"><g transform="translate(0 10.417)"><path class="b" d="M259.174,1004.42l-4.092,12.046h1.874l1.222-3.7h3.962l1.256,3.7h1.926l-4.11-12.046Zm.971,1.981c.138.538.287,1.1.479,1.7l1.1,3.194h-3.139l1.088-3.215C259.841,1007.558,260,1006.995,260.145,1006.4Z" transform="translate(-255.082 -1004.228)"/><path class="b" d="M312.651,1019.586a3.41,3.41,0,0,0-2.9,1.39l-.073-1.2h-1.667l.01.153c.049.746.07,1.568.07,2.747v9.285h1.823v-4.333a3.2,3.2,0,0,0,2.491,1.07,3.757,3.757,0,0,0,2.761-1.174,4.979,4.979,0,0,0,1.219-3.505,4.848,4.848,0,0,0-1.059-3.2A3.468,3.468,0,0,0,312.651,1019.586Zm-.454,1.509c1.625,0,2.352,1.505,2.352,3,0,1.923-.928,3.118-2.421,3.118a2.21,2.21,0,0,1-2.147-1.691,2.326,2.326,0,0,1-.065-.59v-1.466a2.745,2.745,0,0,1,.058-.45c.009-.05.019-.1.026-.148A2.308,2.308,0,0,1,312.2,1021.095Z" transform="translate(-297.116 -1016.271)"/><path class="b" d="M358.233,1019.586a3.412,3.412,0,0,0-2.9,1.39l-.073-1.2H353.6l.009.153c.049.747.07,1.568.07,2.747v9.285H355.5v-4.333a3.2,3.2,0,0,0,2.491,1.07,3.762,3.762,0,0,0,2.763-1.174,4.985,4.985,0,0,0,1.219-3.505,4.848,4.848,0,0,0-1.06-3.2A3.466,3.466,0,0,0,358.233,1019.586Zm-.454,1.509c1.624,0,2.351,1.505,2.351,3,0,1.923-.928,3.118-2.421,3.118a2.21,2.21,0,0,1-2.147-1.691,2.328,2.328,0,0,1-.064-.59v-1.466a2.709,2.709,0,0,1,.058-.451c.009-.049.018-.1.026-.146A2.306,2.306,0,0,1,357.779,1021.095Z" transform="translate(-333.312 -1016.271)"/><path class="b" d="M416.484,1008.784c-1.7-.659-2.246-1.177-2.246-2.134,0-.806.64-1.619,2.071-1.619a4.141,4.141,0,0,1,2.139.537l.154.1.514-1.521-.1-.06a5.283,5.283,0,0,0-2.654-.6c-2.324,0-3.947,1.372-3.947,3.336,0,1.584,1.017,2.691,3.2,3.484,1.547.578,2.122,1.17,2.122,2.186,0,1.149-.888,1.862-2.316,1.862a4.987,4.987,0,0,1-2.627-.745l-.158-.1-.489,1.556.09.06a6.242,6.242,0,0,0,3.08.792c3.132,0,4.243-1.91,4.243-3.545C419.558,1010.685,418.668,1009.646,416.484,1008.784Z" transform="translate(-379.806 -1003.488)"/><path class="b" d="M452.141,1010.439l-1.788.561v1.514h-1.308v1.456h1.308v4.462a3.411,3.411,0,0,0,.631,2.312,2.337,2.337,0,0,0,1.763.692,4.3,4.3,0,0,0,1.409-.217l.1-.036-.087-1.459-.175.054a2.743,2.743,0,0,1-.848.1c-.706,0-1.008-.447-1.008-1.5v-4.409h2.2v-1.456h-2.2Z" transform="translate(-409.109 -1009.008)"/><path class="b" d="M479.993,1019.586a4.292,4.292,0,0,0-4.331,4.627,4.158,4.158,0,0,0,4.191,4.487h.017a4.3,4.3,0,0,0,4.331-4.644,4.6,4.6,0,0,0-1.161-3.223A4.055,4.055,0,0,0,479.993,1019.586Zm-.053,1.439c1.64,0,2.386,1.6,2.386,3.084,0,1.827-1.019,3.153-2.421,3.153h-.018c-1.382,0-2.385-1.3-2.385-3.1C477.5,1022.6,478.256,1021.025,479.94,1021.025Z" transform="translate(-430.246 -1016.271)"/><path class="b" d="M526.747,1019.671l-.109-.028a1.756,1.756,0,0,0-.453-.057,2.6,2.6,0,0,0-2.285,1.467l-.054-1.275h-1.635l.011.153c.049.721.069,1.531.069,2.624l-.017,5.954H524.1v-4.645a4.688,4.688,0,0,1,.05-.706,2.014,2.014,0,0,1,1.917-1.837,4.693,4.693,0,0,1,.489.03l.195.02Z" transform="translate(-467.21 -1016.271)"/><path class="b" d="M548.252,1019.5c-2.426,0-4.121,1.939-4.121,4.714a4.075,4.075,0,0,0,4.3,4.4,6.991,6.991,0,0,0,2.885-.554l.11-.049-.35-1.358-.152.061a5.645,5.645,0,0,1-2.283.408,2.534,2.534,0,0,1-2.73-2.643l5.882.018.024-.116a4.053,4.053,0,0,0,.055-.761C551.867,1021.722,550.92,1019.5,548.252,1019.5Zm-.121,1.386a1.8,1.8,0,0,1,1.338.51,2.594,2.594,0,0,1,.628,1.7h-4.157A2.326,2.326,0,0,1,548.13,1020.889Z" transform="translate(-484.617 -1016.205)"/></g><g transform="translate(0)"><path class="b" d="M255.082,964a13.267,13.267,0,0,1,1.748-.118,3.9,3.9,0,0,1,2.566.7,2.5,2.5,0,0,1,.9,2.055,2.886,2.886,0,0,1-.912,2.216,4.229,4.229,0,0,1-2.81.821,12.631,12.631,0,0,1-1.495-.068Zm.827,5.05a5.871,5.871,0,0,0,.827.034c1.748.008,2.7-.88,2.7-2.419.009-1.362-.837-2.2-2.566-2.2a5.192,5.192,0,0,0-.959.076Z" transform="translate(-255.082 -963.619)"/><path class="b" d="M286.244,975.72a2.055,2.055,0,0,1-2.18-2.106,2.112,2.112,0,0,1,2.256-2.174,2.038,2.038,0,0,1,2.19,2.1,2.119,2.119,0,0,1-2.255,2.182Zm.028-.558a1.457,1.457,0,0,0,1.382-1.6,1.391,1.391,0,1,0-1.391,1.6Z" transform="translate(-278.097 -969.621)"/><path class="b" d="M308.746,971.891l.611,2.073c.122.457.244.888.329,1.311h.028c.1-.415.254-.854.4-1.3l.742-2.081h.7l.705,2.047c.169.482.3.922.4,1.337h.028a11.317,11.317,0,0,1,.348-1.328l.648-2.055h.818l-1.466,4.094h-.752l-.7-1.954a13.418,13.418,0,0,1-.4-1.353h-.019a11.239,11.239,0,0,1-.414,1.362l-.733,1.945h-.752l-1.373-4.094Z" transform="translate(-297.025 -969.979)"/><path class="b" d="M343.866,972.641c0-.431-.01-.77-.038-1.108h.733l.047.669h.019a1.723,1.723,0,0,1,1.5-.761,1.557,1.557,0,0,1,1.607,1.742v2.444h-.826v-2.36c0-.66-.273-1.218-1.053-1.218a1.18,1.18,0,0,0-1.109.761,1,1,0,0,0-.057.347v2.47h-.827Z" transform="translate(-325.556 -969.621)"/><path class="b" d="M369.346,962.607h.827v6.005h-.827Z" transform="translate(-345.819 -962.607)"/><path class="b" d="M380.612,975.72a2.055,2.055,0,0,1-2.18-2.106,2.111,2.111,0,0,1,2.256-2.174,2.039,2.039,0,0,1,2.189,2.1,2.12,2.12,0,0,1-2.256,2.182Zm.028-.558a1.457,1.457,0,0,0,1.382-1.6,1.391,1.391,0,1,0-1.391,1.6Z" transform="translate(-353.035 -969.621)"/><path class="b" d="M406.919,974.646a6.167,6.167,0,0,0,.066.981h-.743l-.075-.516h-.028a1.749,1.749,0,0,1-1.391.609,1.24,1.24,0,0,1-1.391-1.176c0-.99.977-1.531,2.735-1.523v-.084c0-.338-.1-.956-1.034-.947a2.373,2.373,0,0,0-1.194.3l-.188-.5a3.2,3.2,0,0,1,1.5-.355,1.522,1.522,0,0,1,1.738,1.675Zm-.808-1.108c-.9-.017-1.927.127-1.927.922a.692.692,0,0,0,.771.711,1.147,1.147,0,0,0,1.118-.685.684.684,0,0,0,.038-.237Z" transform="translate(-372.828 -969.621)"/><path class="b" d="M429.753,962.607v4.948c0,.364.01.778.038,1.057h-.742l-.037-.71h-.019a1.7,1.7,0,0,1-1.541.8,1.952,1.952,0,0,1-1.955-2.081,2.041,2.041,0,0,1,2.039-2.2,1.564,1.564,0,0,1,1.373.617h.019v-2.436Zm-.827,3.578a1.241,1.241,0,0,0-.038-.321,1.2,1.2,0,0,0-1.193-.854,1.4,1.4,0,0,0-1.363,1.573,1.358,1.358,0,0,0,1.344,1.522,1.231,1.231,0,0,0,1.212-.888,1.161,1.161,0,0,0,.038-.321Z" transform="translate(-390.408 -962.607)"/><path class="b" d="M463.1,975.72a2.055,2.055,0,0,1-2.18-2.106,2.112,2.112,0,0,1,2.256-2.174,2.039,2.039,0,0,1,2.19,2.1,2.12,2.12,0,0,1-2.255,2.182Zm.028-.558a1.456,1.456,0,0,0,1.381-1.6,1.391,1.391,0,1,0-1.391,1.6Z" transform="translate(-418.539 -969.621)"/><path class="b" d="M487.436,972.641c0-.431-.01-.77-.038-1.108h.733l.047.669h.019a1.723,1.723,0,0,1,1.5-.761,1.557,1.557,0,0,1,1.607,1.742v2.444h-.827v-2.36c0-.66-.272-1.218-1.053-1.218a1.181,1.181,0,0,0-1.109.761,1.008,1.008,0,0,0-.056.347v2.47h-.827Z" transform="translate(-439.565 -969.621)"/><path class="b" d="M521.6,967.127v.981h1.184v.567H521.6v2.208c0,.507.16.8.62.8a1.7,1.7,0,0,0,.479-.051l.037.567a2.486,2.486,0,0,1-.733.1,1.253,1.253,0,0,1-.893-.313,1.486,1.486,0,0,1-.319-1.075v-2.233h-.7v-.567h.7v-.753Z" transform="translate(-465.521 -966.196)"/><path class="b" d="M537.705,962.607h.827v2.555h.019a1.4,1.4,0,0,1,.592-.524,1.746,1.746,0,0,1,.846-.211,1.556,1.556,0,0,1,1.588,1.751v2.436h-.827v-2.351c0-.668-.273-1.218-1.053-1.218a1.189,1.189,0,0,0-1.109.744.82.82,0,0,0-.057.355v2.47h-.827Z" transform="translate(-479.514 -962.607)"/><path class="b" d="M562.242,973.673a1.387,1.387,0,0,0,1.551,1.421,3.448,3.448,0,0,0,1.26-.2l.15.524a4.068,4.068,0,0,1-1.523.262,2.018,2.018,0,0,1-2.237-2.064,2.084,2.084,0,0,1,2.143-2.216,1.792,1.792,0,0,1,1.87,1.929,1.721,1.721,0,0,1-.028.355Zm2.416-.533a1.1,1.1,0,0,0-1.138-1.21,1.288,1.288,0,0,0-1.269,1.21Z" transform="translate(-498.365 -969.588)"/></g></g></g></g></svg>