<svg xmlns="http://www.w3.org/2000/svg" width="38.063" height="37.888" viewBox="0 0 38.063 37.888">
  <g id="Group_8492" data-name="Group 8492" transform="translate(-605.326 -17.112)">
    <g id="Group_8488" data-name="Group 8488">
      <g id="Group_7747" data-name="Group 7747" transform="translate(314.707 -363.777)">
        <circle id="Ellipse_1357" data-name="Ellipse 1357" cx="18.853" cy="18.853" r="18.853" transform="translate(290.619 380.889)" fill="#fff"/>
        <g id="Group_7738" data-name="Group 7738" transform="translate(290.703 380.889)">
          <path id="Path_16033" data-name="Path 16033" d="M306.85,441.36l.29-.567a1.9,1.9,0,0,1,.143-.243.4.4,0,0,1,.309-.166.358.358,0,0,1,.188.042.374.374,0,0,1,.2.356.422.422,0,0,1,.231-.133.388.388,0,0,1,.249.04.482.482,0,0,1,.165.141.421.421,0,0,1,.083.2.446.446,0,0,1-.031.227c-.019.05-.075.167-.168.35l-.247.482Zm.382-.165.328.168.1-.187q.086-.168.1-.211a.212.212,0,0,0,.008-.141.164.164,0,0,0-.089-.1.172.172,0,0,0-.125-.019.183.183,0,0,0-.105.082c-.018.027-.061.108-.131.243Zm.564.289.379.194.136-.265a1.42,1.42,0,0,0,.092-.2.188.188,0,0,0-.1-.235.21.21,0,0,0-.124-.025.2.2,0,0,0-.111.056,1.086,1.086,0,0,0-.15.243Z" transform="translate(-304.088 -429.953)" fill="#034a9a"/>
          <path id="Path_16034" data-name="Path 16034" d="M312.445,432l0,.144-.117.179.011-.276.1-.163.248-.122-.116.18Zm.372,1.156a1.014,1.014,0,0,1-.3-.283.771.771,0,0,1-.1-.244.634.634,0,0,1-.008-.25.884.884,0,0,1,.134-.323.746.746,0,0,1,.49-.354.843.843,0,0,1,.625.152.776.776,0,0,1-.219,1.449.819.819,0,0,1-.615-.148Zm.171-.284a.6.6,0,0,0,.412.118.407.407,0,0,0,.29-.19.4.4,0,0,0,.056-.34.607.607,0,0,0-.282-.329.6.6,0,0,0-.408-.122.445.445,0,0,0-.349.523l0,.014a.6.6,0,0,0,.279.326Zm1.184.439-.256-.166.166-.256.256.166Z" transform="translate(-308.608 -422.781)" fill="#034a9a"/>
          <path id="Path_16035" data-name="Path 16035" d="M320.709,422.143l-1.009-.858-.306.36-.206-.174.821-.964.2.174-.3.359,1.007.858Z" transform="translate(-314.264 -413.561)" fill="#034a9a"/>
          <path id="Path_16036" data-name="Path 16036" d="M326.212,416.123l-1.117-1.135.229-.226.439.447.449-.441-.44-.447L326,414.1l1.117,1.135-.229.226-.489-.5-.449.442.489.5Z" transform="translate(-319.135 -408.274)" fill="#034a9a"/>
          <path id="Path_16037" data-name="Path 16037" d="M333.206,408.1l-.024-.393.22-.177.377.109-.191.154-.2-.047.01.2Zm.258.945a1.006,1.006,0,0,1-.2-.364.741.741,0,0,1-.022-.263.619.619,0,0,1,.071-.241.869.869,0,0,1,.228-.265.745.745,0,0,1,.575-.183.974.974,0,0,1,.761.942.739.739,0,0,1-.3.521.749.749,0,0,1-.575.186.824.824,0,0,1-.537-.334Zm.251-.217a.594.594,0,0,0,.355.241.408.408,0,0,0,.335-.09.4.4,0,0,0,.158-.306.607.607,0,0,0-.164-.4.6.6,0,0,0-.35-.243.445.445,0,0,0-.5.389s0,.009,0,.014a.6.6,0,0,0,.163.4Z" transform="translate(-325.804 -402.86)" fill="#034a9a"/>
          <path id="Path_16038" data-name="Path 16038" d="M341.389,403.916l-.871-1.334.262-.171,1.127.534-.581-.89.25-.163.87,1.333-.27.176-1.106-.518.568.869Z" transform="translate(-331.854 -398.209)" fill="#034a9a"/>
          <path id="Path_16039" data-name="Path 16039" d="M350.889,398.888l-.124-.238.615-.319.293.563a.882.882,0,0,1-.181.288,1.065,1.065,0,0,1-.31.245.871.871,0,0,1-.435.107.657.657,0,0,1-.386-.137.96.96,0,0,1-.279-.333.91.91,0,0,1-.111-.441.705.705,0,0,1,.134-.4.828.828,0,0,1,.3-.247.759.759,0,0,1,.468-.1.56.56,0,0,1,.349.206l-.256.2a.338.338,0,0,0-.2-.106.386.386,0,0,0-.237.047.436.436,0,0,0-.236.273.561.561,0,0,0,.072.41.621.621,0,0,0,.308.319.422.422,0,0,0,.359-.027.538.538,0,0,0,.162-.128.732.732,0,0,0,.11-.166l-.094-.179Z" transform="translate(-339.649 -394.889)" fill="#034a9a"/>
          <path id="Path_16040" data-name="Path 16040" d="M362.075,393.907l-.453-1.242-.444.162-.093-.253,1.19-.433.092.253-.443.162.453,1.243Z" transform="translate(-348.815 -390.167)" fill="#034a9a"/>
          <path id="Path_16041" data-name="Path 16041" d="M369.817,392.818l-.456-1.527.308-.092.456,1.526Z" transform="translate(-355.64 -389.391)" fill="#034a9a"/>
          <path id="Path_16042" data-name="Path 16042" d="M373.6,390.786l-.354-1.553.305-.07.871.892-.236-1.037.292-.066.354,1.553-.315.072-.856-.87.23,1.013Z" transform="translate(-358.841 -387.539)" fill="#034a9a"/>
          <path id="Path_16043" data-name="Path 16043" d="M386.331,388.913l-.719-1.532.347-.033.514,1.135.276-1.211.34-.032-.416,1.639Z" transform="translate(-369.042 -386.127)" fill="#034a9a"/>
          <path id="Path_16044" data-name="Path 16044" d="M396.338,386.8l-.35,0-.143-.361-.637.008-.127.364-.341,0,.6-1.6.34,0Zm-.65-1.677-.192,0-.3-.321.343,0Zm.05,1.053-.227-.588-.207.594Z" transform="translate(-376.57 -384.111)" fill="#034a9a"/>
          <path id="Path_16045" data-name="Path 16045" d="M408.628,389.1l.156-1.313-.469-.056.031-.268,1.257.149-.032.268-.468-.056-.156,1.313Z" transform="translate(-387.765 -386.313)" fill="#034a9a"/>
          <path id="Path_16046" data-name="Path 16046" d="M415.564,390.165l.327-1.559.662.138a1.161,1.161,0,0,1,.354.118.363.363,0,0,1,.15.188.456.456,0,0,1,.017.259.425.425,0,0,1-.163.268.508.508,0,0,1-.339.08.761.761,0,0,1,.142.166,1.932,1.932,0,0,1,.127.29l.127.344-.377-.079-.156-.387a2.2,2.2,0,0,0-.118-.264.237.237,0,0,0-.081-.084.545.545,0,0,0-.155-.05l-.063-.014-.136.65Zm.5-.834.233.049a1.213,1.213,0,0,0,.286.04.172.172,0,0,0,.1-.048.2.2,0,0,0,.056-.11.19.19,0,0,0-.015-.135.2.2,0,0,0-.106-.086q-.037-.013-.228-.053l-.245-.051Z" transform="translate(-393.743 -387.253)" fill="#034a9a"/>
          <path id="Path_16047" data-name="Path 16047" d="M425.4,390.735l.308.1-.257.824a1.851,1.851,0,0,0-.068.257.264.264,0,0,0,.047.18.341.341,0,0,0,.185.12.322.322,0,0,0,.214.008.225.225,0,0,0,.12-.106,1.87,1.87,0,0,0,.094-.255l.262-.841.307.1-.249.8a2.14,2.14,0,0,1-.146.379.451.451,0,0,1-.152.163.487.487,0,0,1-.217.068.809.809,0,0,1-.307-.046.887.887,0,0,1-.315-.153.494.494,0,0,1-.136-.186.44.44,0,0,1-.034-.2,1.909,1.909,0,0,1,.09-.4Z" transform="translate(-401.57 -389.009)" fill="#034a9a"/>
          <path id="Path_16048" data-name="Path 16048" d="M435.043,395.11l.258-.618-.183-1.076.348.145.1.725.581-.44.342.142-.9.628-.257.617Z" transform="translate(-409.807 -391.22)" fill="#034a9a"/>
          <path id="Path_16049" data-name="Path 16049" d="M440.45,397.686l.74-1.41,1.046.549-.125.238-.761-.4-.163.313.708.371-.125.238-.708-.371-.2.383.787.413-.125.238Zm1.355-1.239-.143.015-.19-.1.276-.014.171.089.144.235-.189-.1Zm.158-.027-.17-.089-.163-.286.3.159Z" transform="translate(-414.266 -393.387)" fill="#034a9a"/>
          <path id="Path_16050" data-name="Path 16050" d="M447.759,403.037l.868-1.336.262.17-.032,1.247.579-.892.251.163-.868,1.336-.271-.176.027-1.22-.565.871Z" transform="translate(-420.293 -398.052)" fill="#034a9a"/>
          <path id="Path_16051" data-name="Path 16051" d="M459.512,410.526l.853-1.011-.362-.3.174-.206.967.815-.174.206-.36-.3-.852,1.011Z" transform="translate(-429.986 -404.076)" fill="#034a9a"/>
          <path id="Path_16052" data-name="Path 16052" d="M463.717,416.012l1.13-1.121.227.228-.445.441.444.447.445-.441.227.228-1.131,1.121-.227-.228.495-.49-.444-.447-.495.49Z" transform="translate(-433.454 -408.93)" fill="#034a9a"/>
          <path id="Path_16053" data-name="Path 16053" d="M471.637,423.211a1.015,1.015,0,0,1,.363-.2.748.748,0,0,1,.263-.022.616.616,0,0,1,.241.069.88.88,0,0,1,.265.227.746.746,0,0,1,.185.575.974.974,0,0,1-.939.764.74.74,0,0,1-.522-.3.748.748,0,0,1-.188-.575A.824.824,0,0,1,471.637,423.211Zm.217.25a.6.6,0,0,0-.239.356.428.428,0,0,0,.359.488l.039,0a.758.758,0,0,0,.642-.517.445.445,0,0,0-.391-.493h-.013a.6.6,0,0,0-.4.164Zm.726-.511.393-.025.178.22-.107.377-.155-.191.046-.2-.2.011Z" transform="translate(-439.709 -415.555)" fill="#034a9a"/>
          <path id="Path_16054" data-name="Path 16054" d="M475.985,431.133l1.33-.875.172.261-.531,1.129.889-.584.164.249-1.33.875-.178-.27.516-1.107-.868.57Z" transform="translate(-443.571 -421.603)" fill="#034a9a"/>
          <path id="Path_16055" data-name="Path 16055" d="M482.714,440.634l.238-.124.32.614-.563.293a.886.886,0,0,1-.288-.179,1.079,1.079,0,0,1-.245-.31.871.871,0,0,1-.109-.435.673.673,0,0,1,.136-.387.984.984,0,0,1,.334-.279.919.919,0,0,1,.439-.112.709.709,0,0,1,.4.134.832.832,0,0,1,.247.3.764.764,0,0,1,.1.468.563.563,0,0,1-.205.349l-.2-.255a.34.34,0,0,0,.105-.2.379.379,0,0,0-.047-.237.435.435,0,0,0-.273-.236.565.565,0,0,0-.41.073.624.624,0,0,0-.319.308.417.417,0,0,0,.027.358.558.558,0,0,0,.129.162.692.692,0,0,0,.166.11l.179-.094Z" transform="translate(-448.587 -429.402)" fill="#034a9a"/>
          <path id="Path_16056" data-name="Path 16056" d="M297.985,464.64l1.677.33-.1.506-1.2.079,1.084.526-.1.508-1.676-.33.062-.314,1.32.259-1.255-.592.064-.326,1.385-.072-1.319-.261Z" transform="translate(-296.515 -449.957)" fill="#034a9a"/>
          <path id="Path_16057" data-name="Path 16057" d="M297.265,476.22l1.7.2-.04.343-1.7-.2Z" transform="translate(-296.151 -459.507)" fill="#034a9a"/>
          <path id="Path_16058" data-name="Path 16058" d="M296.653,480.478l1.707.075-.014.335-1.171.649,1.139.051-.014.32-1.707-.076.015-.346,1.144-.639-1.114-.049Z" transform="translate(-295.63 -463.018)" fill="#034a9a"/>
          <path id="Path_16059" data-name="Path 16059" d="M296.672,490.4l1.708-.044.008.346-1.708.044Z" transform="translate(-295.695 -471.165)" fill="#034a9a"/>
          <path id="Path_16060" data-name="Path 16060" d="M297.418,494.033l.063.331a.411.411,0,0,0-.235.145.374.374,0,0,0-.056.257.384.384,0,0,0,.093.244.214.214,0,0,0,.172.069.158.158,0,0,0,.1-.045.276.276,0,0,0,.062-.131c.01-.041.027-.135.049-.281a.938.938,0,0,1,.132-.4.446.446,0,0,1,.328-.188.436.436,0,0,1,.25.051.462.462,0,0,1,.192.2.843.843,0,0,1,.09.329.715.715,0,0,1-.1.5.493.493,0,0,1-.359.2l-.047-.342a.291.291,0,0,0,.18-.112.347.347,0,0,0,.037-.222.4.4,0,0,0-.083-.229.124.124,0,0,0-.11-.045.128.128,0,0,0-.1.061.9.9,0,0,0-.084.326,1.7,1.7,0,0,1-.089.382.484.484,0,0,1-.155.2.509.509,0,0,1-.265.093.5.5,0,0,1-.281-.056.489.489,0,0,1-.211-.212.978.978,0,0,1-.1-.365.745.745,0,0,1,.1-.509A.649.649,0,0,1,297.418,494.033Z" transform="translate(-295.878 -474.192)" fill="#034a9a"/>
          <path id="Path_16061" data-name="Path 16061" d="M298.191,502.752l1.4-.259-.093-.5.284-.053.248,1.335-.284.053-.093-.5-1.4.26Z" transform="translate(-296.947 -480.718)" fill="#034a9a"/>
          <path id="Path_16062" data-name="Path 16062" d="M299.5,510.919l1.643-.472.2.7a1.231,1.231,0,0,1,.066.4.394.394,0,0,1-.1.236.485.485,0,0,1-.238.146.453.453,0,0,1-.336-.021.541.541,0,0,1-.245-.281.772.772,0,0,1-.087.217,1.876,1.876,0,0,1-.212.265l-.263.292-.114-.4.288-.342a2.179,2.179,0,0,0,.191-.244.266.266,0,0,0,.04-.119.6.6,0,0,0-.03-.173l-.02-.067-.686.2Zm1.043.059.071.246a1.334,1.334,0,0,0,.105.292.179.179,0,0,0,.1.073.217.217,0,0,0,.133,0,.207.207,0,0,0,.121-.082.216.216,0,0,0,.029-.143c0-.028-.025-.11-.064-.243l-.074-.259Z" transform="translate(-298.024 -487.733)" fill="#034a9a"/>
          <path id="Path_16063" data-name="Path 16063" d="M303.26,519.295l.67-.263.693-.944.148.377-.483.621.773.121.145.37-1.152-.223-.668.262Z" transform="translate(-301.128 -494.034)" fill="#034a9a"/>
          <path id="Path_16064" data-name="Path 16064" d="M309.395,531.541a1.1,1.1,0,0,1,.42-.148.818.818,0,0,1,.282.024.665.665,0,0,1,.243.116.939.939,0,0,1,.24.288.8.8,0,0,1,.094.641.9.9,0,0,1-.456.517.832.832,0,0,1-1.27-.928A.883.883,0,0,1,309.395,531.541Zm.184.3a.64.64,0,0,0-.317.333.461.461,0,0,0,.295.582l.038.01a.654.654,0,0,0,.453-.1.639.639,0,0,0,.318-.328.477.477,0,0,0-.322-.592l-.016,0a.645.645,0,0,0-.448.1Z" transform="translate(-305.8 -505.004)" fill="#034a9a"/>
          <path id="Path_16065" data-name="Path 16065" d="M313.26,539.979l1.4-.982.673.959-.237.166-.474-.676-.331.233.41.583-.237.166-.41-.583-.594.417Z" transform="translate(-309.375 -511.278)" fill="#034a9a"/>
          <path id="Path_16066" data-name="Path 16066" d="M320.862,549.409l1.291-1.12.226.261-1.291,1.12Z" transform="translate(-315.644 -518.941)" fill="#034a9a"/>
          <path id="Path_16067" data-name="Path 16067" d="M323.654,552.244l1.209-1.207.238.238-.314,1.3.808-.806.227.227-1.21,1.207-.244-.245.3-1.275-.789.787Z" transform="translate(-317.946 -521.207)" fill="#034a9a"/>
          <path id="Path_16068" data-name="Path 16068" d="M331.078,558.964l1.092-1.314.9.749-.186.222-.635-.527-.259.311.548.456-.184.222-.549-.456-.464.558Z" transform="translate(-324.069 -526.66)" fill="#034a9a"/>
          <path id="Path_16069" data-name="Path 16069" d="M339.45,564.494a1.082,1.082,0,0,1,.311-.318.808.808,0,0,1,.263-.1.675.675,0,0,1,.269,0,.95.95,0,0,1,.342.151.8.8,0,0,1,.369.533,1.049,1.049,0,0,1-.728,1.076.8.8,0,0,1-.629-.144.807.807,0,0,1-.371-.533A.887.887,0,0,1,339.45,564.494Zm.3.19a.642.642,0,0,0-.137.439.436.436,0,0,0,.2.315.43.43,0,0,0,.363.067.815.815,0,0,0,.5-.729.476.476,0,0,0-.552-.386l-.016,0a.645.645,0,0,0-.356.292Z" transform="translate(-330.821 -531.943)" fill="#034a9a"/>
          <path id="Path_16070" data-name="Path 16070" d="M347.319,569.848l.806-1.506.64.343a1.24,1.24,0,0,1,.329.228.394.394,0,0,1,.1.238.491.491,0,0,1-.061.273.453.453,0,0,1-.249.227.543.543,0,0,1-.372-.02.815.815,0,0,1,.1.214,1.847,1.847,0,0,1,.042.337l.027.392-.364-.195-.045-.446a2.554,2.554,0,0,0-.041-.307.27.27,0,0,0-.058-.111.581.581,0,0,0-.144-.1l-.062-.033-.337.629Zm.769-.706.226.12a1.307,1.307,0,0,0,.283.127.181.181,0,0,0,.12-.018.227.227,0,0,0,.091-.1.205.205,0,0,0,.025-.144.214.214,0,0,0-.083-.12c-.023-.017-.1-.058-.219-.124l-.238-.127Z" transform="translate(-337.462 -535.478)" fill="#034a9a"/>
          <path id="Path_16071" data-name="Path 16071" d="M356.579,574.319l.637-1.585.479.192-.148,1.2.719-.967.481.193-.637,1.585-.3-.12.5-1.248-.816,1.121-.308-.124.188-1.374-.5,1.248Z" transform="translate(-345.099 -539.1)" fill="#034a9a"/>
          <path id="Path_16072" data-name="Path 16072" d="M368.488,579.38l-.362-.1-.039-.414-.658-.184-.24.335-.352-.1,1.1-1.466.351.1Zm-.429-.821-.056-.674-.393.549Z" transform="translate(-353.559 -542.991)" fill="#034a9a"/>
          <path id="Path_16073" data-name="Path 16073" d="M377.857,580.57l.268-1.394-.5-.1.054-.284,1.333.256-.055.284-.5-.1-.268,1.393Z" transform="translate(-362.457 -544.1)" fill="#034a9a"/>
          <path id="Path_16074" data-name="Path 16074" d="M385.271,582.016l.217-1.7.343.044-.218,1.7Z" transform="translate(-368.761 -545.357)" fill="#034a9a"/>
          <path id="Path_16075" data-name="Path 16075" d="M389.36,581.744a1.091,1.091,0,0,1,.1-.434.828.828,0,0,1,.172-.225.674.674,0,0,1,.229-.141.942.942,0,0,1,.371-.047.8.8,0,0,1,.59.267.9.9,0,0,1,.191.663.89.89,0,0,1-.261.633.793.793,0,0,1-.613.2.8.8,0,0,1-.592-.266A.878.878,0,0,1,389.36,581.744Zm.355.007a.649.649,0,0,0,.11.447.461.461,0,0,0,.649.065l.029-.026a.653.653,0,0,0,.156-.438.644.644,0,0,0-.105-.445.432.432,0,0,0-.334-.163.437.437,0,0,0-.351.127.647.647,0,0,0-.154.433Z" transform="translate(-372.131 -545.829)" fill="#034a9a"/>
          <path id="Path_16076" data-name="Path 16076" d="M400.277,582.7,400.2,581l.335-.015.752,1.106-.054-1.139.32-.015.081,1.707-.345.017-.741-1.081.052,1.113Z" transform="translate(-381.069 -545.861)" fill="#034a9a"/>
          <path id="Path_16077" data-name="Path 16077" d="M415.214,581.063l-.369.067-.217-.354-.671.123-.069.407-.36.066.347-1.8.359-.066Zm-.746-.551-.346-.581-.113.665Z" transform="translate(-392.064 -544.685)" fill="#034a9a"/>
          <path id="Path_16078" data-name="Path 16078" d="M422.518,578.466l-.476-1.641.323-.093.989.9-.318-1.1.308-.089.475,1.641-.332.1-.972-.878.31,1.07Z" transform="translate(-399.085 -542.162)" fill="#034a9a"/>
          <path id="Path_16079" data-name="Path 16079" d="M431.051,574.35l.584-.236a1.287,1.287,0,0,1,.313-.092.573.573,0,0,1,.3.05.745.745,0,0,1,.254.2,1.235,1.235,0,0,1,.2.353,1.112,1.112,0,0,1,.088.357.755.755,0,0,1-.056.348.609.609,0,0,1-.174.217,1.044,1.044,0,0,1-.27.147l-.6.244Zm.428.139.424,1.05.238-.1a.982.982,0,0,0,.188-.093.315.315,0,0,0,.1-.119.362.362,0,0,0,.023-.186,1.125,1.125,0,0,0-.085-.3.967.967,0,0,0-.147-.269.385.385,0,0,0-.152-.117.33.33,0,0,0-.178-.015,1.642,1.642,0,0,0-.269.091Z" transform="translate(-406.515 -540.16)" fill="#034a9a"/>
          <path id="Path_16080" data-name="Path 16080" d="M445.577,568.68l.342-.076a.749.749,0,0,1-.013.488.8.8,0,0,1-.926.423.885.885,0,0,1-.507-.44.937.937,0,0,1-.141-.684.759.759,0,0,1,.384-.494.708.708,0,0,1,.533-.094.683.683,0,0,1,.309.185l-.255.242a.357.357,0,0,0-.214-.118.362.362,0,0,0-.241.05.39.39,0,0,0-.2.273.669.669,0,0,0,.119.441.714.714,0,0,0,.332.341.378.378,0,0,0,.331-.033.344.344,0,0,0,.161-.194A.515.515,0,0,0,445.577,568.68Z" transform="translate(-417.452 -535.018)" fill="#034a9a"/>
          <path id="Path_16081" data-name="Path 16081" d="M452.75,563.611a1.1,1.1,0,0,1-.195-.4.8.8,0,0,1-.008-.283.673.673,0,0,1,.087-.254.953.953,0,0,1,.258-.271.8.8,0,0,1,.627-.166.887.887,0,1,1-.21,1.761A.879.879,0,0,1,452.75,563.611Zm.281-.218a.64.64,0,0,0,.366.276.461.461,0,0,0,.544-.359c0-.013,0-.026.006-.039a.657.657,0,0,0-.155-.438.641.641,0,0,0-.362-.278.431.431,0,0,0-.361.084.436.436,0,0,0-.192.32.642.642,0,0,0,.154.434Z" transform="translate(-424.234 -530.434)" fill="#034a9a"/>
          <path id="Path_16082" data-name="Path 16082" d="M460.478,555.911l-1.154-1.26.381-.348,1.016.65-.561-1.067.381-.349,1.153,1.26-.236.216-.908-.992.658,1.221-.245.224-1.157-.763.908.991Z" transform="translate(-429.831 -523.268)" fill="#034a9a"/>
          <path id="Path_16083" data-name="Path 16083" d="M468.6,547.7l-1.293-1.117.338-.391,1.084.527-.682-.994.339-.391,1.293,1.116-.21.243-1.018-.879.8,1.136-.217.251-1.238-.623,1.018.88Z" transform="translate(-436.418 -516.507)" fill="#034a9a"/>
          <path id="Path_16084" data-name="Path 16084" d="M474.36,538.829l.2-.284.762.524a1.963,1.963,0,0,0,.243.152.274.274,0,0,0,.2.008.358.358,0,0,0,.181-.152.348.348,0,0,0,.077-.216.239.239,0,0,0-.071-.157,1.807,1.807,0,0,0-.231-.178l-.778-.536.2-.284.739.509a2.332,2.332,0,0,1,.342.269.48.48,0,0,1,.118.206.508.508,0,0,1,0,.244.873.873,0,0,1-.143.3.936.936,0,0,1-.258.273.515.515,0,0,1-.234.082.479.479,0,0,1-.211-.028,2.061,2.061,0,0,1-.377-.218Z" transform="translate(-442.231 -510.213)" fill="#034a9a"/>
          <path id="Path_16085" data-name="Path 16085" d="M481.165,531.491l-1.5-.82.161-.294,1.336-.066-1-.547.154-.281,1.5.82-.166.3-1.308.069.977.535Z" transform="translate(-446.606 -503.431)" fill="#034a9a"/>
          <path id="Path_16086" data-name="Path 16086" d="M485.618,527.114l-1.553-.712.143-.313,1.554.711Z" transform="translate(-450.234 -500.633)" fill="#034a9a"/>
          <path id="Path_16087" data-name="Path 16087" d="M487.8,518.483l.217-.276a.751.751,0,0,1,.3.385.8.8,0,0,1-.445.916.889.889,0,0,1-.672-.018.934.934,0,0,1-.544-.438.757.757,0,0,1-.019-.625.71.71,0,0,1,.352-.412.669.669,0,0,1,.356-.054l-.043.349a.351.351,0,0,0-.394.237.387.387,0,0,0,.019.336.665.665,0,0,0,.372.265.718.718,0,0,0,.473.053.379.379,0,0,0,.234-.236.345.345,0,0,0,0-.253A.515.515,0,0,0,487.8,518.483Z" transform="translate(-452.309 -493.926)" fill="#034a9a"/>
          <path id="Path_16088" data-name="Path 16088" d="M491.443,509.727l-.094.363-.413.047-.172.66.34.234-.092.354-1.487-1.073.092-.353Zm-.814.445-.673.068.556.383Z" transform="translate(-454.738 -487.139)" fill="#034a9a"/>
          <path id="Path_16089" data-name="Path 16089" d="M492.549,501.733l-1.4-.238-.085.5-.285-.049.228-1.339.285.049-.085.5,1.4.238Z" transform="translate(-455.772 -479.618)" fill="#034a9a"/>
          <path id="Path_16090" data-name="Path 16090" d="M493.822,498.2l-1.7-.18.036-.343,1.7.179Z" transform="translate(-456.879 -477.206)" fill="#034a9a"/>
          <path id="Path_16091" data-name="Path 16091" d="M493.388,488.858a1.078,1.078,0,0,1-.436-.091.812.812,0,0,1-.23-.166.685.685,0,0,1-.147-.226.954.954,0,0,1-.057-.371.8.8,0,0,1,.253-.6,1.048,1.048,0,0,1,1.3.038.8.8,0,0,1,.216.608.809.809,0,0,1-.251.6A.886.886,0,0,1,493.388,488.858Zm0-.356a.639.639,0,0,0,.444-.12.46.46,0,0,0,.049-.649l-.027-.029a.654.654,0,0,0-.441-.146.646.646,0,0,0-.442.115.477.477,0,0,0-.03.674l.011.011a.645.645,0,0,0,.437.144Z" transform="translate(-457.205 -468.562)" fill="#034a9a"/>
          <path id="Path_16092" data-name="Path 16092" d="M494,478.8l-1.7.127-.025-.334,1.086-.783-1.138.085-.024-.319,1.7-.128.026.345-1.06.77,1.111-.083Z" transform="translate(-456.936 -460.522)" fill="#034a9a"/>
          <path id="Path_16093" data-name="Path 16093" d="M492.409,469.339l-.09-.325a.407.407,0,0,0,.223-.163.371.371,0,0,0,.035-.261.38.38,0,0,0-.113-.235.21.21,0,0,0-.177-.055.153.153,0,0,0-.1.053.275.275,0,0,0-.051.135c-.007.042-.016.137-.026.285a.94.94,0,0,1-.1.413.447.447,0,0,1-.565.184.458.458,0,0,1-.207-.18.859.859,0,0,1-.117-.321.718.718,0,0,1,.056-.5.5.5,0,0,1,.341-.232l.075.337a.291.291,0,0,0-.17.127.347.347,0,0,0-.019.225.4.4,0,0,0,.1.222.125.125,0,0,0,.114.035.136.136,0,0,0,.093-.068.933.933,0,0,0,.057-.332,1.672,1.672,0,0,1,.056-.388.48.48,0,0,1,.138-.216.538.538,0,0,1,.542-.082.488.488,0,0,1,.227.195.956.956,0,0,1,.126.355.738.738,0,0,1-.062.516A.645.645,0,0,1,492.409,469.339Z" transform="translate(-456.042 -452.69)" fill="#034a9a"/>
          <path id="Path_16094" data-name="Path 16094" d="M348.4,427.819a11.789,11.789,0,0,1,10.761,6.338,11.127,11.127,0,0,0-21.708.421A11.71,11.71,0,0,1,348.4,427.819Z" transform="translate(-329.323 -417.826)" fill="#034a9a"/>
          <path id="Path_16095" data-name="Path 16095" d="M368.417,451.644a7.344,7.344,0,0,1,6.545,3.747,6.827,6.827,0,0,0-13.2.211A7.317,7.317,0,0,1,368.417,451.644Z" transform="translate(-349.371 -438.218)" fill="#034a9a"/>
          <path id="Path_16096" data-name="Path 16096" d="M341.765,547.6l.1,0a12.7,12.7,0,0,0-10.814-6.092,12.574,12.574,0,0,0-1.511.094A15.422,15.422,0,0,0,341.765,547.6Z" transform="translate(-322.804 -513.347)" fill="#034a9a"/>
          <path id="Path_16097" data-name="Path 16097" d="M311.557,488.613c-.145,0-.287.008-.431.011a15.451,15.451,0,0,0,.373,3.284,17.579,17.579,0,0,1,3.667.365c6.827,1.411,11.637,6.5,11.335,11.706l.074,0c.064,0,.127,0,.19-.005A15.348,15.348,0,0,0,311.557,488.613Z" transform="translate(-307.615 -469.727)" fill="#034a9a"/>
          <path id="Path_16098" data-name="Path 16098" d="M316.618,516.882c-.219,0-.436.008-.653.017a15.368,15.368,0,0,0,1.139,2.525,16.193,16.193,0,0,1,3.782.334c4.828,1,8.575,3.984,10.039,7.527h.019A15.18,15.18,0,0,0,316.618,516.882Z" transform="translate(-311.605 -493.04)" fill="#034a9a"/>
          <path id="Path_16099" data-name="Path 16099" d="M399.16,547.6l-.1,0a12.6,12.6,0,0,1,12.325-6A15.424,15.424,0,0,1,399.16,547.6Z" transform="translate(-380.129 -513.347)" fill="#034a9a"/>
          <path id="Path_16100" data-name="Path 16100" d="M413.775,488.613c.145,0,.288.008.431.011a15.513,15.513,0,0,1-.372,3.284,17.58,17.58,0,0,0-3.667.365c-6.828,1.411-11.637,6.5-11.335,11.706l-.075,0c-.064,0-.127,0-.19-.005A15.346,15.346,0,0,1,413.775,488.613Z" transform="translate(-379.726 -469.727)" fill="#034a9a"/>
          <path id="Path_16101" data-name="Path 16101" d="M411.825,516.882c.218,0,.435.008.652.017a15.394,15.394,0,0,1-1.138,2.525,16.194,16.194,0,0,0-3.783.334c-4.829,1-8.575,3.984-10.04,7.527H397.5A15.179,15.179,0,0,1,411.825,516.882Z" transform="translate(-378.845 -493.04)" fill="#034a9a"/>
          <path id="Path_16102" data-name="Path 16102" d="M381.538,464.05v4.7h-3.8Z" transform="translate(-362.548 -449.47)" fill="#034a9a"/>
          <path id="Path_16103" data-name="Path 16103" d="M399.893,495.884v-4.7h3.8Z" transform="translate(-380.819 -471.846)" fill="#034a9a"/>
          <path id="Path_16104" data-name="Path 16104" d="M310.088,380.889a18.944,18.944,0,1,0,18.989,18.944A18.967,18.967,0,0,0,310.088,380.889Zm0,37.533a18.589,18.589,0,1,1,18.633-18.589A18.611,18.611,0,0,1,310.088,418.422Z" transform="translate(-291.098 -380.889)" fill="#034a9a"/>
          <path id="Path_16105" data-name="Path 16105" d="M342.163,415.807a15.441,15.441,0,0,0-15.446-14.747h-.054a15.441,15.441,0,0,0-15.445,14.747c.907-6.623,7.483-11.764,15.472-11.78C334.679,404.043,341.256,409.184,342.163,415.807Z" transform="translate(-307.691 -397.524)" fill="#034a9a"/>
        </g>
      </g>
    </g>
  </g>
</svg>
